<?xml version="1.0" standalone="no"?>
<!DOCTYPE svg PUBLIC "-//W3C//DTD SVG 20010904//EN"
 "http://www.w3.org/TR/2001/REC-SVG-20010904/DTD/svg10.dtd">
<svg version="1.0" xmlns="http://www.w3.org/2000/svg"
 width="480.000000pt" height="480.000000pt" viewBox="0 0 480.000000 480.000000"
 preserveAspectRatio="xMidYMid meet">

<g transform="translate(0.000000,480.000000) scale(0.100000,-0.100000)"
fill="#000000" stroke="none">
<path d="M0 2400 l0 -2400 2400 0 2400 0 0 2400 0 2400 -2400 0 -2400 0 0
-2400z m2625 1056 c282 -61 537 -227 685 -446 86 -127 158 -306 185 -459 8
-46 15 -88 15 -92 0 -5 -36 -9 -80 -9 l-80 0 0 38 c0 61 -38 189 -86 291 -127
270 -351 449 -654 523 -160 39 -384 23 -547 -38 -203 -76 -376 -220 -487 -403
-49 -82 -126 -284 -126 -332 0 -15 -3 -41 -6 -58 l-6 -31 -72 0 -72 0 8 83
c27 284 213 591 458 757 132 90 334 168 490 190 89 12 290 5 375 -14z m-612
-546 l58 0 -3 -412 c-3 -411 -3 -413 -27 -466 -45 -100 -128 -146 -250 -140
l-64 3 -2 86 -3 85 53 -4 c63 -5 87 6 109 52 14 30 16 83 16 413 0 209 3 383
7 387 4 4 17 5 28 2 11 -3 46 -6 78 -6z m1005 -1025 c-2 -2 -41 -6 -87 -10
l-84 -7 6 295 c3 162 3 298 -1 301 -3 4 -60 -51 -126 -120 l-121 -127 -66 69
c-36 38 -91 96 -122 129 l-57 60 0 -301 0 -301 -82 -2 -83 -1 1 282 c1 156 2
386 3 513 l1 230 203 -210 204 -210 94 96 c52 52 144 149 204 214 l110 118 3
-508 c1 -280 1 -509 0 -510z m482 386 c0 -105 -49 -266 -121 -400 -45 -84
-145 -215 -211 -277 -124 -118 -305 -221 -471 -268 -506 -145 -1069 111 -1299
591 -52 108 -98 268 -98 339 l0 44 70 0 69 0 7 -37 c26 -153 80 -289 164 -413
62 -91 184 -207 285 -269 176 -110 414 -167 599 -143 295 37 548 193 707 434
80 122 148 308 149 406 l0 32 75 0 75 0 0 -39z"/>
</g>
</svg>
